<?xml version="1.0" encoding="UTF-8" standalone="no"?>
<!DOCTYPE svg PUBLIC "-//W3C//DTD SVG 1.1//EN" "http://www.w3.org/Graphics/SVG/1.1/DTD/svg11.dtd">
<svg width="100%" height="100%" viewBox="0 0 1798 623" version="1.1" xmlns="http://www.w3.org/2000/svg" xmlns:xlink="http://www.w3.org/1999/xlink" xml:space="preserve" xmlns:serif="http://www.serif.com/" style="fill-rule:evenodd;clip-rule:evenodd;stroke-linejoin:round;stroke-miterlimit:2;">
    <path d="M172,70.1L172,15.1L13.4,15.1L13.4,610.9L172,610.9L172,363C191.2,399.4 229.1,423 282.7,423C375.5,423 449.1,346.6 449.1,216.6C449.1,86.6 375.5,10.1 282.7,10.1C229.1,10.1 191.2,33.7 172,70.1ZM288.4,216.6C288.4,260.9 262.7,284.4 229.8,284.4C197,284.4 171.2,260.9 171.2,216.6C171.2,172.3 197,148.7 229.8,148.7C262.7,148.7 288.4,172.3 288.4,216.6Z" style="fill:rgb(204,52,45);fill-rule:nonzero;"/>
    <path d="M267,276C245.9,276 228.9,258.9 228.9,237.9C228.9,216.8 245.9,199.8 267,199.8C288.1,199.8 305.1,216.8 305.1,237.9C305.1,258.9 288.1,276 267,276Z" style="fill:rgb(204,52,45);fill-rule:nonzero;"/>
    <path d="M474.9,217.6C474.9,347.6 548.5,424 641.4,424C694.9,424 733.5,400.4 752.8,364L752.8,419L910.7,419L910.7,16.1L752.8,16.1L752.8,71.1C733.5,34.7 694.9,11.1 641.4,11.1C548.5,11.1 474.9,87.6 474.9,217.6ZM752.8,217.6C752.8,261.9 727.1,285.4 694.2,285.4C661.4,285.4 635.6,261.9 635.6,217.6C635.6,173.3 661.4,149.7 694.2,149.7C727.1,149.7 752.8,173.3 752.8,217.6Z" style="fill:rgb(204,52,45);fill-rule:nonzero;"/>
    <path d="M734,275.8C713,275.8 695.9,258.8 695.9,237.7C695.9,216.6 713,199.6 734,199.6C755.1,199.6 772.1,216.6 772.1,237.7C772.1,258.8 755.1,275.8 734,275.8Z" style="fill:rgb(204,52,45);fill-rule:nonzero;"/>
    <path d="M977.7,267.6L974,252.8C974,252.8 1501.5,168.6 1656.8,178.1C1744.4,183.4 1741.7,220.8 1683.5,215C1558.8,202.7 977.7,267.6 977.7,267.6Z" style="fill:rgb(204,52,45);fill-rule:nonzero;"/>
    <path d="M935.2,217.6C935.2,346.1 1020.2,424 1140.9,424C1244.5,424 1322.4,362.6 1341.6,256.8L1173.8,256.8C1168.1,276.1 1157.4,288.3 1137.4,288.3C1113.1,288.3 1095.9,266.1 1095.9,217.6C1095.9,169 1113.1,146.8 1137.4,146.8C1157.4,146.8 1168.1,159 1173.8,178.3L1341.6,178.3C1322.4,72.6 1244.5,11.1 1140.9,11.1C1020.2,11.1 935.2,89 935.2,217.6ZM1211.4,137.8C1190.3,137.8 1173.3,120.8 1173.3,99.7C1173.3,78.7 1190.3,61.6 1211.4,61.6C1232.5,61.6 1249.5,78.7 1249.5,99.7C1249.5,120.8 1232.5,137.8 1211.4,137.8Z" style="fill:rgb(204,52,45);fill-rule:nonzero;"/>
    <path d="M1213.8,123.6C1201.9,123.6 1192.4,114 1192.4,102.1C1192.4,90.3 1201.9,80.7 1213.8,80.7C1225.6,80.7 1235.2,90.3 1235.2,102.1C1235.2,114 1225.6,123.6 1213.8,123.6Z" style="fill:rgb(204,52,45);fill-rule:nonzero;"/>
    <path d="M1747.4,90.9L1690.9,129C1686.83,131.6 1684.2,135.367 1683,140.3C1681.87,144.9 1682.4,149.167 1684.6,153.1C1686.73,156.967 1689.9,159.4 1694.1,160.4C1698.63,161.533 1702.9,160.7 1706.9,157.9L1746.8,131.1C1747.47,130.633 1747.87,130.067 1748,129.4C1748.2,128.533 1747.73,127.033 1746.6,124.9C1745.4,122.767 1744.4,121.6 1743.6,121.4C1743,121.267 1742.37,121.4 1741.7,121.8L1701.8,148.7C1700.07,149.767 1698.37,150.1 1696.7,149.7C1695.23,149.3 1694.13,148.467 1693.4,147.2C1692.67,145.867 1692.5,144.4 1692.9,142.8C1693.37,140.867 1694.4,139.333 1696,138.2L1752.5,100.1C1756.63,97.367 1760.8,96.5 1765,97.5C1768.27,98.3 1770.7,100.133 1772.3,103C1773.9,105.933 1774.27,109.167 1773.4,112.7C1772.27,117.3 1769.67,121 1765.6,123.8L1690,174.6C1685.07,177.867 1679.9,178.867 1674.5,177.6C1669.03,176.267 1664.87,173.1 1662,168.1C1659.13,163.1 1658.43,157.6 1659.9,151.6C1661.3,145.933 1664.5,141.367 1669.5,137.9L1728.6,98.2C1729.2,97.733 1729.6,97.133 1729.8,96.4C1730,95.533 1729.53,94.067 1728.4,92C1727.27,89.867 1726.27,88.7 1725.4,88.5C1724.8,88.367 1724.17,88.533 1723.5,89L1664.6,128.6C1657.2,133.6 1652.43,140.533 1650.3,149.4C1648.17,158.333 1649.2,166.567 1653.4,174.1C1657.6,181.633 1663.8,186.4 1672,188.4C1680,190.333 1687.73,188.833 1695.2,183.9L1770.7,133C1777.17,128.667 1781.33,122.7 1783.2,115.1C1784.8,108.567 1784.1,102.6 1781.1,97.2C1778.1,91.733 1773.6,88.3 1767.6,86.9C1760.53,85.167 1753.8,86.5 1747.4,90.9Z" style="fill:rgb(5,169,244);fill-rule:nonzero;"/>
</svg>
