<svg version="1.2" xmlns="http://www.w3.org/2000/svg" viewBox="0 0 1798 623" width="1798" height="623"><style>.a{fill:#fff}</style><path  d="m172 70.1v-55h-158.6v595.8h158.6v-247.9c19.2 36.4 57.1 60 110.7 60 92.8 0 166.4-76.4 166.4-206.4 0-130-73.6-206.5-166.4-206.5-53.6 0-91.5 23.6-110.7 60zm116.4 146.5c0 44.3-25.7 67.8-58.6 67.8-32.8 0-58.6-23.5-58.6-67.8 0-44.3 25.8-67.9 58.6-67.9 32.9 0 58.6 23.6 58.6 67.9z"/><path  d="m267 276c-21.1 0-38.1-17.1-38.1-38.1 0-21.1 17-38.1 38.1-38.1 21.1 0 38.1 17 38.1 38.1 0 21-17 38.1-38.1 38.1z"/><path  d="m474.9 217.6c0 130 73.6 206.4 166.5 206.4 53.5 0 92.1-23.6 111.4-60v55h157.9v-402.9h-157.9v55c-19.3-36.4-57.9-60-111.4-60-92.9 0-166.5 76.5-166.5 206.5zm277.9 0c0 44.3-25.7 67.8-58.6 67.8-32.8 0-58.6-23.5-58.6-67.8 0-44.3 25.8-67.9 58.6-67.9 32.9 0 58.6 23.6 58.6 67.9z"/><path  d="m734 275.8c-21 0-38.1-17-38.1-38.1 0-21.1 17.1-38.1 38.1-38.1 21.1 0 38.1 17 38.1 38.1 0 21.1-17 38.1-38.1 38.1z"/><path  d="m935.2 217.6c0 128.5 85 206.4 205.7 206.4 103.6 0 181.5-61.4 200.7-167.2h-167.8c-5.7 19.3-16.4 31.5-36.4 31.5-24.3 0-41.5-22.2-41.5-70.7 0-48.6 17.2-70.8 41.5-70.8 20 0 30.7 12.2 36.4 31.5h167.8c-19.2-105.7-97.1-167.2-200.7-167.2-120.7 0-205.7 77.9-205.7 206.5z"/><path class="a" d="m1211.4 137.8c-21.1 0-38.1-17-38.1-38.1 0-21 17-38.1 38.1-38.1 21.1 0 38.1 17.1 38.1 38.1 0 21.1-17 38.1-38.1 38.1z"/><path  d="m1213.8 123.6c-11.9 0-21.4-9.6-21.4-21.5 0-11.8 9.5-21.4 21.4-21.4 11.8 0 21.4 9.6 21.4 21.4 0 11.9-9.6 21.5-21.4 21.5z"/><path  d="m977.7 267.6l-3.7-14.8c0 0 527.5-84.2 682.8-74.7 87.6 5.3 84.9 42.7 26.7 36.9-124.7-12.3-705.8 52.6-705.8 52.6z"/><path  d="m1747.4 90.9l-56.5 38.1q-6.1 3.9-7.9 11.3-1.7 6.9 1.6 12.8 3.2 5.8 9.5 7.3 6.8 1.7 12.8-2.5l39.9-26.8q1-0.7 1.2-1.7 0.3-1.3-1.4-4.5-1.8-3.2-3-3.5-0.9-0.2-1.9 0.4l-39.9 26.9q-2.6 1.6-5.1 1-2.2-0.6-3.3-2.5-1.1-2-0.5-4.4 0.7-2.9 3.1-4.6l56.5-38.1q6.2-4.1 12.5-2.6 4.9 1.2 7.3 5.5 2.4 4.4 1.1 9.7-1.7 6.9-7.8 11.1l-75.6 50.8q-7.4 4.9-15.5 3-8.2-2-12.5-9.5-4.3-7.5-2.1-16.5 2.1-8.5 9.6-13.7l59.1-39.7q0.9-0.7 1.2-1.8 0.3-1.3-1.4-4.4-1.7-3.2-3-3.5-0.9-0.2-1.9 0.5l-58.9 39.6q-11.1 7.5-14.3 20.8-3.2 13.4 3.1 24.7 6.3 11.3 18.6 14.3 12 2.9 23.2-4.5l75.5-50.9q9.7-6.5 12.5-17.9 2.4-9.8-2.1-17.9-4.5-8.2-13.5-10.3-10.6-2.6-20.2 4z"/></svg>